<svg width="155" height="105" viewBox="0 0 155 105" fill="none" xmlns="http://www.w3.org/2000/svg">
<g clip-path="url(#clip0_3_1658)">
<path d="M98.7801 75.6061C97.488 70.5272 94.2446 66.1061 89.9991 63.1061C89.9991 63.1061 85.3581 59.1851 77.4208 59.1851C72.9117 59.1851 69.1672 60.8166 66.7939 62.2114C66.7939 62.2114 66.7676 62.2114 66.7412 62.2114C62.2847 64.8166 58.6194 69.1061 57.0108 74.0272C56.7208 74.9219 55.9297 77.6587 55.9297 78.4745V88.8429H99.4658C99.3603 84.4219 99.8613 79.9219 98.7801 75.6061ZM94.9302 84.5009H60.5971C60.4125 84.3693 60.3334 84.2377 60.307 84.0008C60.1752 83.2377 60.2543 81.1061 60.307 80.264C61.1509 68.1851 73.2808 60.343 84.6461 65.1587C89.3399 67.1587 94.9302 73.6061 94.9302 78.8693V84.5009Z" fill="white" stroke="white" stroke-width="0.962407" stroke-miterlimit="10"/>
<path d="M96.6447 56.4206C97.9632 56.6838 98.4906 55.8417 99.3608 55.1575L135.698 23.9733C136.199 23.7627 137.913 24.7364 138.783 24.8417C142.475 25.289 146.061 23.8154 147.828 20.4996C151.256 14.1048 145.877 6.89432 139.126 7.84168C136.41 8.13116 134.722 9.55221 133.773 10.6838C132.059 12.5522 131.426 15.2364 131.743 17.8154C131.874 18.868 132.507 19.6838 132.613 20.6838L95.6954 52.368C94.2978 53.6048 94.7461 56.0259 96.6447 56.3943V56.4206ZM140.708 20.4996C135.329 21.0259 134.538 13.1048 139.39 12.2627C145.244 11.2627 146.219 19.9469 140.708 20.4996Z" fill="white" stroke="white" stroke-width="0.962407" stroke-miterlimit="10"/>
<path d="M17.8253 24.4221C18.3527 24.2642 18.801 23.7116 19.3547 23.9747L56.5621 55.9484C59.0408 57.6063 61.4405 54.6063 59.3309 52.3958L22.4927 20.8431L22.3608 20.4747C24.0221 17.3168 23.6266 13.501 21.3324 10.7642C21.016 10.3958 19.9876 9.36946 19.5393 9.13262C18.801 8.57999 17.5616 7.89578 16.1113 7.86946C8.51684 6.73788 2.97924 15.5537 8.17404 21.9221C10.5473 24.8168 14.3709 25.5274 17.8253 24.4484V24.4221ZM13.949 12.2905C19.7503 11.2905 20.7523 19.8431 15.2674 20.5274C9.88806 21.1853 8.96512 13.1589 13.949 12.2905Z" fill="white" stroke="white" stroke-width="0.962407" stroke-miterlimit="10"/>
<path d="M47.359 75.7895L15.2146 89.7369C14.8191 89.8158 13.3687 88.579 12.7095 88.2632C2.79457 83.5 -4.64163 98 4.50859 103.368C11.4174 107.421 19.1964 101.184 17.4297 93.579L48.5984 79.9737C50.6025 78.7105 49.6796 75.8158 47.3854 75.7632L47.359 75.7895ZM6.30172 99.2105C1.92438 95.5 8.01574 89.1053 11.9712 93.0527C15.6893 96.7369 10.2571 102.579 6.30172 99.2105Z" fill="white" stroke="white" stroke-width="0.962407" stroke-miterlimit="10"/>
<path d="M151.704 89.5259C148.197 86.5259 143.424 86.868 139.969 89.7891L107.667 75.7891C105.267 75.8943 104.529 78.6312 106.454 79.9996L137.623 93.6049C136.33 99.4206 140.576 105 146.641 104.631C154.183 104.157 157.479 94.4996 151.678 89.5259H151.704ZM146.852 100.079C140.708 100.947 140.418 92.2628 145.744 91.8417C150.913 91.4206 151.809 99.3943 146.852 100.079Z" fill="white" stroke="white" stroke-width="0.962407" stroke-miterlimit="10"/>
<path d="M51.7636 63.9209L34.2015 59.8157C33.5687 51.5262 23.4428 49.1578 18.8545 54.9736C18.8545 54.9736 16.1912 57.9999 17.1932 62.1051C18.9336 70.0262 29.666 71.3946 33.3577 64.1578L51.1571 68.3157C53.7941 68.4209 54.4533 64.6315 51.79 63.9209H51.7636ZM25.7369 64.4999C20.7267 64.6841 19.9884 57.1051 24.6558 56.3157C31.0108 55.2367 31.4064 64.2893 25.7369 64.4999Z" fill="white" stroke="white" stroke-width="0.962407" stroke-miterlimit="10"/>
<path d="M137.069 64.315H137.174C137.174 64.315 137.596 63.6307 137.86 62.0781C137.86 62.0781 137.86 62.0255 137.86 61.9992C137.965 61.3939 138.018 60.6834 138.044 59.8413C138.044 58.4465 137.543 57.1834 136.937 56.1834C133.113 48.8676 121.511 51.0255 120.852 59.815L102.868 64.0781C100.626 65.0518 101.655 68.6834 104.133 68.315L121.748 64.1571C125.071 70.6571 134.089 70.236 137.095 64.315H137.069ZM129.448 56.1834C134.854 56.2623 134.854 64.4465 129.448 64.4465C123.884 64.4465 124.042 56.1044 129.448 56.1834Z" fill="white" stroke="white" stroke-width="0.962407" stroke-miterlimit="10"/>
<path d="M71.5929 15.5008C72.8323 16.5797 74.2299 16.8955 75.522 17.7113V29.7113C75.8121 32.0271 79.1874 31.9481 79.873 29.8692L79.9521 17.2113C87.2301 14.8166 88.0475 4.44814 80.9805 1.21129C71.9094 -2.9466 64.1831 9.00077 71.6193 15.5008H71.5929ZM73.1751 8.3955C73.307 7.00077 74.6782 5.26392 76.0758 4.97445C79.5565 4.26392 82.5099 7.36919 81.0596 10.7376C79.2665 14.8955 72.6477 13.4218 73.1751 8.3955Z" fill="white" stroke="white" stroke-width="0.962407" stroke-miterlimit="10"/>
<path d="M67.111 48C67.111 48 67.1901 48.3158 67.3483 48.8421C67.6911 50.3947 68.4031 51.8684 69.537 53.2105C70.7236 54.8421 72.464 56.3421 74.9164 56.9474C81.1396 58.4737 85.1477 53.8947 85.1477 53.8947C85.4642 53.6053 85.7542 53.3158 85.9125 53.1053C90.8699 46.8684 87.6001 37.5263 79.742 36C71.6993 34.4211 66.2408 41.4737 67.1901 48.079L67.111 48ZM81.3769 41.4474C88.1802 46.579 79.7947 56.6579 73.4397 50.8421C67.9021 45.7895 75.101 36.7105 81.3769 41.4474Z" fill="white" stroke="white" stroke-width="0.962407" stroke-miterlimit="10"/>
</g>
<defs>
<clipPath id="clip0_3_1658">
<rect width="155" height="105" fill="white"/>
</clipPath>
</defs>
</svg>
